{"title":"LEGO Scooby Doo Haunted Hollywood (2016) BluRay 720p H264 AC3 [I","uid":14618524,"size":714197068,"categoryP":"video","categoryS":"hd___movies","magnet":"?xt=urn:btih:894122dffa0fc52b0594af4fb7ed67db9cbfc3bf&amp;dn=LEGO+Scooby+Doo+Haunted+Hollywood+%282016%29+BluRay+720p+H264+AC3+%5BI&amp;tr=udp%3A%2F%2Ftracker.leechers-paradise.org%3A6969&amp;tr=udp%3A%2F%2Fzer0day.ch%3A1337&amp;tr=udp%3A%2F%2Fopen.demonii.com%3A1337&amp;tr=udp%3A%2F%2Ftracker.coppersurfer.tk%3A6969&amp;tr=udp%3A%2F%2Fexodus.desync.com%3A6969","seeders":0,"leechers":1,"uploader":"ITRG","files":5,"time":1463235145,"description":"screen shots \nhttp://extraimago.com/images/2016/05/13/10fb81.jpg \nhttp://extraimago.com/images/2016/05/13/2f19c1.jpg \nhttp://extraimago.com/images/2016/05/13/30e473.jpg\r\n\r\nGeneral\r\nUnique ID                   : 266102682987596364102228553043869928134 (0xC8318336222418CF88EABF6D598B8AC6)\r\nComplete name               : C:BDConvertedLEGO Scooby Doo Haunted Hollywood (2016)LEGO Scooby Doo Haunted Hollywood (2016) BluRay 720p H264 AC3 [ITRG][IndexTorrent].mkvLEGO Scooby Doo Haunted Hollywood (2016) BluRay 720p H264 AC3 [ITRG][IndexTorrent].mkv\r\nFormat                      : Matroska\r\nFormat version              : Version 2\r\nFile size                   : 681 MiB\r\nDuration                    : 1h 15mn\r\nOverall bit rate            : 1 264 Kbps\r\nEncoded date                : UTC 2016-05-12T12:43:13Z\r\nWriting application         : HandBrake 0.10.3 2016012200\r\nWriting library             : Lavf55.12.0 / Lavf55.12.0\r\n\r\nVideo\r\nID                          : 1\r\nFormat                      : AVC\r\nFormat/Info                 : Advanced Video Codec\r\nFormat profile              :   \r\nFormat settings, CABAC      : Yes\r\nFormat settings, ReFrames   : 4 frames\r\nCodec ID                    : V_MPEG4/ISO/AVC\r\nDuration                    : 1h 15mn\r\nBit rate                    : 1 150 Kbps\r\nWidth                       : 720 pixels\r\nHeight                      : 320 pixels\r\nDisplay aspect ratio        : 2.25:1\r\nFrame rate mode             : Constant\r\nFrame rate                  : 23.976 (24000/1001) fps\r\nColor space                 : YUV\r\nChroma subsampling          : 4:2:0\r\nBit depth                   : 8 bits\r\nScan type                   : Progressive\r\nBits/(Pixel*Frame)          : 0.208\r\nStream size                 : 616 MiB (90%)\r\n\r\nDefault                     : Yes\r\nForced                      : No\r\nColor range                 : Limited\r\nColor primaries             : BT.709\r\nTransfer characteristics    : BT.709\r\nMatrix coefficients         : BT.709\r\n\r\nAudio\r\nID                          : 2\r\nFormat                      : AC-3\r\nFormat/Info                 : Audio Coding 3\r\nMode extension              : CM (complete main)\r\nFormat settings, Endianness : Big\r\nCodec ID                    : A_AC3\r\nDuration                    : 1h 15mn\r\nBit rate mode               : Constant\r\nBit rate                    : 96.0 Kbps\r\nChannel(s)                  : 2 channels\r\nChannel positions           : Front: L R\r\nSampling rate               : 48.0 KHz\r\nFrame rate                  : 31.250 fps (1536 spf)\r\nCompression mode            : Lossy\r\nDelay relative to video     : -5ms\r\nStream size                 : 51.7 MiB (8%)\r\nTitle                       : Stereo\r\nLanguage                    : English\r\nDefault                     : Yes\r\nForced                      : No","torrent":{"xt":"urn:btih:894122dffa0fc52b0594af4fb7ed67db9cbfc3bf","amp;dn":"LEGO+Scooby+Doo+Haunted+Hollywood+%282016%29+BluRay+720p+H264+AC3+%5BI","amp;tr":["udp%3A%2F%2Ftracker.leechers-paradise.org%3A6969","udp%3A%2F%2Fzer0day.ch%3A1337","udp%3A%2F%2Fopen.demonii.com%3A1337","udp%3A%2F%2Ftracker.coppersurfer.tk%3A6969","udp%3A%2F%2Fexodus.desync.com%3A6969"],"infoHash":"894122dffa0fc52b0594af4fb7ed67db9cbfc3bf","infoHashBuffer":{"type":"Buffer","data":[137,65,34,223,250,15,197,43,5,148,175,79,183,237,103,219,156,191,195,191]},"announce":[],"urlList":[]}}